<svg xmlns="http://www.w3.org/2000/svg" viewBox="0 0 21.1 29.63"><defs><style>.cls-1{fill:#fff;}</style></defs><g id="Capa_2" data-name="Capa 2"><g id="Capa_1-2" data-name="Capa 1"><g id="e2DxTD"><path class="cls-1" d="M10.49,15.51a7.76,7.76,0,1,1,7.8-7.71A7.76,7.76,0,0,1,10.49,15.51Zm0-11.73a4,4,0,0,0-4,4,4,4,0,0,0,8,0A4,4,0,0,0,10.52,3.78Z"/><path class="cls-1" d="M10.6,17a38.1,38.1,0,0,1,4,0,7.47,7.47,0,0,1,6.48,7.07c0,1.2,0,2.39,0,3.59a1.88,1.88,0,1,1-3.75,0c0-1,0-1.93,0-2.89a3.73,3.73,0,0,0-3.66-4.05,53.43,53.43,0,0,0-6.2,0,3.72,3.72,0,0,0-3.69,4c0,1.05,0,2.1,0,3.15A1.81,1.81,0,0,1,2.18,29.6a1.84,1.84,0,0,1-2-1.06A1.68,1.68,0,0,1,0,27.82a38.64,38.64,0,0,1,.07-4.17,7.46,7.46,0,0,1,7.19-6.72c1.1-.05,2.21,0,3.32,0Z"/></g></g></g></svg>