<svg xmlns="http://www.w3.org/2000/svg" viewBox="0 0 28.22 37.03"><defs><style>.cls-1{fill:#fff;}</style></defs><g id="Capa_2" data-name="Capa 2"><g id="Capa_1-2" data-name="Capa 1"><g id="hq6uQp"><path class="cls-1" d="M7,37c-.22-.07-.44-.12-.65-.21a3.11,3.11,0,0,1-2.1-2.73c-.31-3.48-.59-7-.88-10.45s-.61-7.25-.91-10.87c-.05-.6-.1-1.2-.15-1.84H1.17A1.07,1.07,0,0,1,0,9.75,19.36,19.36,0,0,1,.08,7.11,3.15,3.15,0,0,1,3.23,4.42H8.68V3.31A3.26,3.26,0,0,1,12,0h4.26a3.24,3.24,0,0,1,3.29,3.27c0,.36,0,.72,0,1.14h5.28a3.25,3.25,0,0,1,3.4,3.41q0,1,0,1.92A1.08,1.08,0,0,1,27,10.92H26c-.07.78-.13,1.54-.2,2.31L25,22.64l-.75,9.14c-.07.81-.13,1.61-.21,2.41a3.28,3.28,0,0,1-2.31,2.71l-.44.13ZM4.44,10.94c0,.51.08,1,.12,1.44q.3,3.67.61,7.35t.62,7.53c.18,2.13.35,4.27.54,6.41.08.87.46,1.19,1.34,1.19h13.2a1.06,1.06,0,0,0,1-.91c0-.2,0-.41.07-.61l.39-4.75c.21-2.49.42-5,.62-7.46l.63-7.49.21-2.7ZM2.18,8.73H26V7.92c0-.94-.39-1.33-1.34-1.33H3.19a1.08,1.08,0,0,0-1,1C2.16,8,2.18,8.34,2.18,8.73ZM17.36,4.4c0-.41,0-.79,0-1.16A1.07,1.07,0,0,0,16.3,2.18c-1.46,0-2.91,0-4.37,0a1,1,0,0,0-1,.84,9.07,9.07,0,0,0,0,1.38Z"/><path class="cls-1" d="M10.85,22.89v8.49a2.07,2.07,0,0,1,0,.5,1.07,1.07,0,0,1-1.14.81,1.09,1.09,0,0,1-1-1,2.81,2.81,0,0,1,0-.29v-17a2.37,2.37,0,0,1,0-.46,1.08,1.08,0,0,1,2.14.26c0,2.12,0,4.24,0,6.36Z"/><path class="cls-1" d="M13,22.9q0-4.32,0-8.64a1.08,1.08,0,0,1,1.49-1.08,1,1,0,0,1,.67,1c0,.44,0,.89,0,1.34V31.37a1.78,1.78,0,0,1,0,.46A1.08,1.08,0,0,1,13,31.57c0-2.39,0-4.77,0-7.16Z"/><path class="cls-1" d="M17.36,22.9q0-4.32,0-8.64a1.08,1.08,0,0,1,1.49-1.08,1.06,1.06,0,0,1,.67,1c0,.17,0,.34,0,.5V31.36a2.43,2.43,0,0,1,0,.47,1.08,1.08,0,0,1-2.14-.26c0-2.14,0-4.29,0-6.43Z"/></g></g></g></svg>