<svg xmlns="http://www.w3.org/2000/svg" viewBox="0 0 26.86 32.75"><defs><style>.cls-1{fill:#f1f1f1;}.cls-2{fill:#f2f2f2;}</style></defs><g id="Capa_2" data-name="Capa 2"><g id="Capa_1-2" data-name="Capa 1"><path class="cls-1" d="M13.32,24.76c-.12-.1-.25-.18-.36-.29L.43,11.94c-.08-.08-.15-.17-.23-.26.16-.2.37-.1.55-.1,2.15,0,4.3,0,6.45,0,.5,0,.63-.12.62-.63,0-3.4,0-6.8,0-10.2,0-.55.08-.76.71-.75,3.31,0,6.62,0,9.93,0,.23,0,.5-.13.68.14a1.55,1.55,0,0,1,.19,1v9.13c0,1,0,1,1,1,2,0,4,0,6,0,.34.07.64.16.35.6L14.17,24.45a1.54,1.54,0,0,1-.47.37A.4.4,0,0,1,13.32,24.76Z"/><path class="cls-2" d="M17.75,28.88h8.74a.21.21,0,0,1,.22.11,12.18,12.18,0,0,1,.08,3.19.57.57,0,0,1-.53.53,4,4,0,0,1-.6,0H1c-.35,0-.78.12-1-.34,0-.94.05-1.88,0-2.81,0-.56.12-.71.69-.7,5.44,0,10.88,0,16.32,0Z"/></g></g></svg>