<svg xmlns="http://www.w3.org/2000/svg" viewBox="0 0 36.8 36.73"><defs><style>.cls-1{fill:#fff;}</style></defs><g id="Capa_2" data-name="Capa 2"><g id="Capa_1-2" data-name="Capa 1"><g id="PdHcdm"><path class="cls-1" d="M36.8,6a4.25,4.25,0,0,1-1.32,3.09q-12,12-24,24a1.51,1.51,0,0,1-.56.38Q6,35.08,1.17,36.67a1.27,1.27,0,0,1-.77,0c-.38-.14-.49-.56-.33-1C.63,34,1.2,32.36,1.75,30.72s1.1-3.28,1.66-4.91a1.05,1.05,0,0,1,.3-.43q12-12,24-24a4.29,4.29,0,0,1,6.27,0l1.49,1.49A4.22,4.22,0,0,1,36.8,6ZM10.74,31.49,28.83,13.41,23.42,8,5.33,26.07ZM32.47,9.75c.73-.69,1.51-1.34,2.17-2.1a2.63,2.63,0,0,0-.08-3.51C34,3.49,33.34,2.86,32.7,2.27a2.66,2.66,0,0,0-3.43-.18c-.82.67-1.53,1.46-2.28,2.18ZM9.23,32.38,4.46,27.61c-.43,1.24-.87,2.52-1.29,3.8a.47.47,0,0,0,.12.36,13,13,0,0,1,1,1.06,1.47,1.47,0,0,0,2.07.51A26.94,26.94,0,0,1,9.23,32.38ZM31.31,11,25.87,5.56,24.66,6.74l5.43,5.47ZM2,34.77l1.49-.49-1-1Z"/></g></g></g></svg>