<svg xmlns="http://www.w3.org/2000/svg" viewBox="0 0 70.69 70.69"><defs><style>.cls-1{fill:#868686;}.cls-2{fill:#b1b1b1;}.cls-3{fill:#1d1d1b;}</style></defs><g id="Capa_2" data-name="Capa 2"><g id="Capa_1-2" data-name="Capa 1"><rect class="cls-1" width="70.69" height="70.69" rx="11.13"/><rect class="cls-2" x="9.68" y="8.96" width="51.65" height="51.65" rx="6.37"/><g id="jlooy9"><path class="cls-3" d="M50.47,54.27H20.85c-2.43-1-3-1.89-3-4.6,0-7.73.06-15.47,0-23.2,0-2.61,1.49-4.52,4.36-4.41,3.06.12,6.11.05,9.17,0A3.77,3.77,0,0,0,33,21.65c3.21-1.72,6.38-3.48,9.57-5.23h.84a3,3,0,0,1,1.8,1.65c.32.65.77,1.24,1,1.92a3,3,0,0,0,3.53,2.16,3.46,3.46,0,0,1,3.74,3.72c0,2.41,0,4.82,0,7.23v1h1.77v9.26H53.61c0,.13-.09.17-.09.22,0,2.08,0,4.15,0,6.23C53.5,52.42,52.9,53.32,50.47,54.27ZM52,26.88H22.45c-.53,0-1.19.08-1.21-.68s.69-.72,1.25-.72a23,23,0,0,1,2.35,0c1.89.2,3.06-1.21,4.55-1.9-2.52-.1-5-.1-7.5-.09a2.26,2.26,0,0,0-2.59,2.57q0,12.1,0,24.22a2.21,2.21,0,0,0,2.52,2.53H49.59a2.23,2.23,0,0,0,2.48-2.5c0-2.11,0-4.21,0-6.31,0-.21,0-.43-.07-.62-.12,0-.18,0-.23,0H47a4.6,4.6,0,0,1-4.46-6.21,4.43,4.43,0,0,1,4.28-3H52Zm-4.36-1.42c-1.39-2.48-2.69-4.85-4-7.19-.36-.63-.9-.37-1.39-.09L29.91,25c-.17.09-.31.23-.6.43Zm6.19,10c-2.46,0-4.84-.09-7.22,0-1.94.09-3,1.5-2.89,3.5A3,3,0,0,0,47,41.85c2.08,0,4.15,0,6.23,0,.21,0,.42,0,.66-.06Zm-1.91-10c0-1.41-1.41-2.36-3.66-1.86.29.52.54,1,.86,1.52a.83.83,0,0,0,.59.32C50.45,25.5,51.17,25.48,51.94,25.48Z"/><path class="cls-3" d="M49,38.72a1.58,1.58,0,0,1-1.59,1.6,1.61,1.61,0,0,1-1.61-1.6,1.68,1.68,0,0,1,1.56-1.58A1.66,1.66,0,0,1,49,38.72Z"/></g></g></g></svg>