<svg xmlns="http://www.w3.org/2000/svg" viewBox="0 0 60.65 60.64"><defs><style>.cls-1{fill:#fff;}</style></defs><g id="Capa_2" data-name="Capa 2"><g id="Capa_1-2" data-name="Capa 1"><path class="cls-1" d="M30.09,60.64A30.32,30.32,0,1,1,60.65,30.47,30.22,30.22,0,0,1,30.09,60.64Zm18-29.48h-.19c0-2.41.09-4.83,0-7.24-.26-6.18-3.26-9.84-9.23-10.24a128.51,128.51,0,0,0-17.33.11A8.35,8.35,0,0,0,13.15,22a154.4,154.4,0,0,0,0,17.87,8.51,8.51,0,0,0,8.49,8.32,165.14,165.14,0,0,0,17.52,0c4.78-.26,7.83-3.41,8.44-8.2C48,37.08,47.91,34.1,48.05,31.16Z"/><path class="cls-1" d="M30.44,16.71c2.42,0,4.83-.08,7.24,0,4.41.18,6.8,2.52,6.91,7q.19,7.25,0,14.48c-.11,4.54-2.46,6.92-7,7.05-4.82.14-9.66.13-14.48,0q-6.83-.2-7-7.05-.18-7.33,0-14.66c.12-4.23,2.49-6.55,6.72-6.76C25.37,16.61,27.91,16.71,30.44,16.71Zm8.91,14.41A9,9,0,1,0,30.11,40,9,9,0,0,0,39.35,31.12ZM39.24,24h.88c.56-.77,1.46-1.48,1.61-2.33.25-1.32-.67-2.14-2-2.12s-2.17.83-2,2.05C37.86,22.45,38.71,23.19,39.24,24Z"/><path class="cls-1" d="M36.18,31.07a5.83,5.83,0,1,1-5.81-5.94A5.86,5.86,0,0,1,36.18,31.07Z"/></g></g></svg>