<svg xmlns="http://www.w3.org/2000/svg" viewBox="0 0 37.57 27.82"><defs><style>.cls-1{fill:#fff;}</style></defs><g id="Capa_2" data-name="Capa 2"><g id="Capa_1-2" data-name="Capa 1"><g id="rUJQGc"><path class="cls-1" d="M37.57,26a5.5,5.5,0,0,1-.45.91,2.26,2.26,0,0,1-2,.94H2.47A2.27,2.27,0,0,1,0,25.35V5.47A2.27,2.27,0,0,1,2.44,3q3.49,0,7,0a.69.69,0,0,0,.65-.32c.41-.61.82-1.21,1.24-1.81A2.05,2.05,0,0,1,13.09,0q5.7,0,11.41,0a2,2,0,0,1,1.75.87c.43.6.84,1.2,1.25,1.81a.71.71,0,0,0,.67.34H35a2.31,2.31,0,0,1,2.56,1.78s0,0,0,0Zm-18.78.35H35c.83,0,1.07-.24,1.07-1.07V5.59c0-.84-.22-1.06-1.07-1.06-2.3,0-4.6,0-6.9,0a2,2,0,0,1-1.74-.88c-.42-.58-.83-1.18-1.23-1.78a.74.74,0,0,0-.7-.35q-5.64,0-11.3,0a.74.74,0,0,0-.7.36c-.41.6-.81,1.21-1.24,1.81a1.93,1.93,0,0,1-1.69.84c-2.18,0-4.36,0-6.53,0-.23,0-.47,0-.7,0a.73.73,0,0,0-.76.73c0,.13,0,.25,0,.37V25.22a3.83,3.83,0,0,0,0,.47.66.66,0,0,0,.57.59,3.38,3.38,0,0,0,.55,0Z"/><path class="cls-1" d="M18.78,24.06a9.77,9.77,0,1,1,9.77-9.75A9.78,9.78,0,0,1,18.78,24.06Zm0-18a8.26,8.26,0,1,0,8.27,8.26A8.29,8.29,0,0,0,18.78,6Z"/><path class="cls-1" d="M6.39,9.79a4.88,4.88,0,0,1-.76-.07A1.47,1.47,0,0,1,4.52,8.19,1.45,1.45,0,0,1,5.8,6.81a5.36,5.36,0,0,1,1.2,0A1.45,1.45,0,0,1,8.26,8.33,1.47,1.47,0,0,1,6.87,9.76H6.39Z"/><path class="cls-1" d="M18.79,7.54A6.76,6.76,0,1,1,12,14.29,6.75,6.75,0,0,1,18.79,7.54Zm0,12a5.26,5.26,0,1,0-5.26-5.25A5.26,5.26,0,0,0,18.78,19.54Z"/></g></g></g></svg>