<svg xmlns="http://www.w3.org/2000/svg" viewBox="0 0 61.36 61.35"><defs><style>.cls-1{fill:#fff;}</style></defs><g id="Capa_2" data-name="Capa 2"><g id="Capa_1-2" data-name="Capa 1"><g id="nbbKSr"><path class="cls-1" d="M30.72,0A30.67,30.67,0,1,0,61.36,31.05,30.67,30.67,0,0,0,30.72,0ZM45.84,20.18a7.33,7.33,0,0,1-.25,1.6c-.56,2.67-1.13,5.33-1.7,8-.51,2.42-1,4.83-1.54,7.24l-1.62,7.67a4.87,4.87,0,0,1-.23.74,1.46,1.46,0,0,1-2,.86,4.73,4.73,0,0,1-1.08-.66l-6.91-5.1c-.2-.14-.2-.14-.37,0l-3.67,3.53a1.83,1.83,0,0,1-1.17.6c-.24,0-.24,0-.22-.24.07-1.05.14-2.1.22-3.15s.17-2.41.26-3.61l0-.57a.48.48,0,0,1,.18-.38l1.83-1.65,6.82-6.16,5.17-4.66.35-.34a.27.27,0,0,0,.09-.28c0-.13-.16-.16-.27-.18a1,1,0,0,0-.5.09,2.67,2.67,0,0,0-.58.31L31,28.71,24,33.09,21.45,34.7a.39.39,0,0,1-.38,0l-7.37-2.3a2.5,2.5,0,0,1-.82-.4.78.78,0,0,1-.11-1.28,3.08,3.08,0,0,1,1.11-.7l6.32-2.44,6.25-2.41,9.83-3.78,7.24-2.8a2,2,0,0,1,1.12-.15,1.33,1.33,0,0,1,1.08.92A1.93,1.93,0,0,1,45.84,20.18Z"/></g></g></g></svg>