<svg xmlns="http://www.w3.org/2000/svg" viewBox="0 0 32.45 32.47"><defs><style>.cls-1{fill:#fff;}</style></defs><g id="Capa_2" data-name="Capa 2"><g id="Capa_1-2" data-name="Capa 1"><g id="ABMK0x"><path class="cls-1" d="M16.21,32.47A16.24,16.24,0,1,1,32.45,16.23,16.23,16.23,0,0,1,16.21,32.47Zm0-3.26a13,13,0,1,0-13-13A13,13,0,0,0,16.22,29.21Z"/><path class="cls-1" d="M11.35,16.13c0-1.51,0-3,0-4.53A1.65,1.65,0,0,1,14,10.09l7.65,4.59c1.4.86,1.41,2.23,0,3.08-2.54,1.54-5.1,3.07-7.65,4.59a1.66,1.66,0,0,1-2.69-1.54C11.34,19.25,11.35,17.69,11.35,16.13Zm3.26,2.1,3.34-2-3.34-2Z"/></g></g></g></svg>