<svg xmlns="http://www.w3.org/2000/svg" viewBox="0 0 35.01 35.01"><defs><style>.cls-1{fill:#fff;}.cls-2{fill:#ff0079;}.cls-3{fill:#fdfefc;}</style></defs><g id="Capa_2" data-name="Capa 2"><g id="Capa_1-2" data-name="Capa 1"><circle class="cls-1" cx="17.51" cy="17.51" r="17.51"/><circle class="cls-2" cx="17.51" cy="17.95" r="14.33"/><path class="cls-3" d="M27.3,13.22a1.56,1.56,0,0,1-.4.7c-1.37,1.63-2.79,3.22-4.19,4.82-1.15,1.32-2.29,2.65-3.45,4-.66.75-1.29,1.53-2,2.21a2,2,0,0,1-.58.41,1.24,1.24,0,0,1-1.11-.08A13.68,13.68,0,0,1,13.67,24c-1.48-1-2.9-2.15-4.39-3.18L9,20.63a.82.82,0,0,1-.21-1.19,4.93,4.93,0,0,1,.79-1,20.41,20.41,0,0,1,1.87-1.85.36.36,0,0,1,.48-.05,17.19,17.19,0,0,1,1.62,1.18c.67.51,1.31,1.06,2,1.52a.2.2,0,0,0,.32,0c.67-.72,1.3-1.47,1.94-2.22q1.92-2.24,3.82-4.49c.54-.63,1.08-1.27,1.65-1.87a.5.5,0,0,1,.6-.13,5.22,5.22,0,0,1,1.25.74c.61.43,1.21.86,1.81,1.31A.82.82,0,0,1,27.3,13.22Z"/></g></g></svg>