<svg xmlns="http://www.w3.org/2000/svg" viewBox="0 0 33.38 33.39"><defs><style>.cls-1{fill:#fff;stroke:#fff;stroke-miterlimit:10;}</style></defs><g id="Capa_2" data-name="Capa 2"><g id="Capa_1-2" data-name="Capa 1"><g id="JmflKO"><path class="cls-1" d="M.5,16.7A16.19,16.19,0,1,1,16.69,32.89,16.18,16.18,0,0,1,.5,16.7Zm20.75-4.85H12.13a39.19,39.19,0,0,0,0,9.68h9.12A39.19,39.19,0,0,0,21.25,11.85Zm9.17,9.69.1-.24a14.61,14.61,0,0,0,0-9.13.4.4,0,0,0-.47-.34H22.89a43.79,43.79,0,0,1,0,9.71ZM10.48,11.85l-.24,0h-7c-.25,0-.32.09-.39.3a14.66,14.66,0,0,0,0,9.1c.08.27.21.33.48.33h7.18A44.31,44.31,0,0,1,10.48,11.85Zm10.57-1.66C20.77,9.1,20.55,8,20.24,7a10.86,10.86,0,0,0-1.88-3.9c-1.08-1.33-2.29-1.35-3.33,0a11,11,0,0,0-1.25,2.16,20,20,0,0,0-1.4,4.92Zm-8.63,13a.69.69,0,0,0,0,.13A21,21,0,0,0,14,28.56a5.74,5.74,0,0,0,1.66,2.32,1.55,1.55,0,0,0,2.09,0,4.84,4.84,0,0,0,1-1,15.34,15.34,0,0,0,2-5.23c.11-.47.19-.95.29-1.44Zm7.5,7.7a14.32,14.32,0,0,0,7-3.81,14.17,14.17,0,0,0,2.81-3.87l-.13,0H22.91c-.21,0-.28.09-.3.29s-.12.67-.19,1A18,18,0,0,1,19.92,30.89Zm0-28.43c.33.59.65,1.11.91,1.65a21.47,21.47,0,0,1,1.74,5.75c.05.3.16.37.44.36H29.4l.35,0A14.76,14.76,0,0,0,19.94,2.46Zm-6.54,0a14.39,14.39,0,0,0-7,3.88,13.73,13.73,0,0,0-2.76,3.85h6.84c.26,0,.26-.16.3-.34a21.74,21.74,0,0,1,1.53-5.3C12.63,3.87,13,3.2,13.4,2.49ZM3.7,23.18c.83,3,7,7.83,9.71,7.66-.23-.38-.47-.76-.67-1.14a20.88,20.88,0,0,1-2-6.16c-.06-.31-.17-.38-.46-.38H3.7Z"/></g></g></g></svg>