<svg xmlns="http://www.w3.org/2000/svg" viewBox="0 0 60.64 60.72"><defs><style>.cls-1{fill:#fff;}</style></defs><g id="Capa_2" data-name="Capa 2"><g id="Capa_1-2" data-name="Capa 1"><path class="cls-1" d="M60.64,30.39A30.32,30.32,0,1,1,30.43,0,30.29,30.29,0,0,1,60.64,30.39ZM30.28,18.29h0c-3.92,0-7.84,0-11.77,0a5.08,5.08,0,0,0-5.45,5.41c0,4.4,0,8.81,0,13.21,0,3.46,2.06,5.51,5.54,5.52q11.77.06,23.53,0c3.37,0,5.4-2.05,5.43-5.43,0-4.4,0-8.81,0-13.21,0-3.47-2.06-5.49-5.53-5.51C38.12,18.28,34.2,18.29,30.28,18.29Z"/><path class="cls-1" d="M26.94,36.13V23.31l9.74,6.39Z"/></g></g></svg>