<svg xmlns="http://www.w3.org/2000/svg" viewBox="0 0 92.68 92.68"><defs><style>.cls-1{fill:#fff;}.cls-2{fill:#ff0079;}</style></defs><g id="Capa_2" data-name="Capa 2"><g id="Capa_1-2" data-name="Capa 1"><circle class="cls-1" cx="46.34" cy="46.34" r="46.34"/><circle class="cls-2" cx="46.34" cy="47.52" r="37.94"/><g id="PdHcdm"><path class="cls-1" d="M67.76,33a4.92,4.92,0,0,1-1.53,3.59q-14,14-27.95,27.94a1.67,1.67,0,0,1-.65.44Q32,66.91,26.27,68.76a1.5,1.5,0,0,1-.89,0c-.44-.16-.57-.65-.39-1.19.66-1.91,1.32-3.82,2-5.74s1.28-3.81,1.93-5.71a1.34,1.34,0,0,1,.35-.5q14-14,28-28a5,5,0,0,1,7.31,0c.58.58,1.16,1.15,1.73,1.74A4.94,4.94,0,0,1,67.76,33ZM37.42,62.73,58.48,41.67l-6.3-6.3L31.12,56.42ZM62.73,37.42c.84-.81,1.75-1.56,2.52-2.45a3.07,3.07,0,0,0-.09-4.09c-.69-.75-1.42-1.48-2.18-2.18a3.07,3.07,0,0,0-4-.2c-1,.78-1.79,1.69-2.66,2.53ZM35.66,63.76l-5.55-5.55c-.5,1.45-1,2.94-1.51,4.43a.49.49,0,0,0,.15.41A15.84,15.84,0,0,1,30,64.3a1.71,1.71,0,0,0,2.41.58A33.56,33.56,0,0,1,35.66,63.76ZM61.37,38.88,55,32.54l-1.41,1.38L60,40.28ZM27.25,66.56,29,66l-1.13-1.21Z"/></g></g></g></svg>