<svg xmlns="http://www.w3.org/2000/svg" viewBox="0 0 428.94 247.33"><defs><style>.cls-1{fill:#fff;}</style></defs><g id="Capa_2" data-name="Capa 2"><g id="Capa_1-2" data-name="Capa 1"><path class="cls-1" d="M280.18,87.15a.76.76,0,0,0,0-.15s0-.07,0-.11,0,0,0-.06a.09.09,0,0,0,0,0s0,0,0,0l0-.1,0,0-.05-.11h0s0,0,0-.06L258.51,50.64h0l-4.25-7.09,0-.06-.05-.07h0l-.05-.06-.06-.07h0l-.06-.05-.06,0h0l-.08,0-.06,0h0l-.07,0h0l-.06,0h0l-.06,0h0l-.06,0h0l-.06,0H241L215.66.67a1.39,1.39,0,0,0-2.38,0L188,42.88H175.88a1.4,1.4,0,0,0-1.19.67L149,86.44l-.05.09,0,0c0,.07,0,.14-.07.2h0s0,0,0,.06a.43.43,0,0,1,0,.11V87h0s0,.06,0,.09v0a.28.28,0,0,0,0,.09v.08a.24.24,0,0,0,0,.08v0s0,0,0,.07,0,0,0,0l0,.08s0,0,0,0l.06.1v0l0,0L170.4,123.6h0l4.29,7.14,0,.06.05.07h0l.06.07.05.06h0a.18.18,0,0,0,.07.05l.06.06h0l.08.05.07.05h0l.07,0h0l.07,0h0l.06,0h.05l.06,0H188l25.32,42.21a1.39,1.39,0,0,0,2.38,0L241,131.42h12.08a1.3,1.3,0,0,0,.52-.1,1.42,1.42,0,0,0,.67-.57L280,87.87l0-.09,0-.06a1.43,1.43,0,0,0,.08-.22s0,0,0-.06l0-.17v-.12Zm-64.51,20.74v0L202.83,86.48a1.44,1.44,0,0,0-.18-.25,1.39,1.39,0,0,0-1-.47h0l-23.26.06L201.61,47l24.51,40.86a1.36,1.36,0,0,0,.24.31,1.28,1.28,0,0,0,1,.4l23.27-.06-23.27,38.85Zm-37.34,20.75L189.53,110H212l-11.2,18.66Zm-2.45-38.72,11.24,18.67-11.24,18.74L164.7,108.59Zm13.65,17.28L178.37,88.6l22.45-.06L212,107.2Zm61.08-61.54-11.2,18.66H216.93l11.19-18.66ZM261,71.19l-7.9,13.19L241.82,65.71,253.06,47l11.19,18.73ZM239.42,67.1l11.19,18.6-22.49.06L216.93,67.1Zm-24.95-63,23.28,38.79H227.34a1.43,1.43,0,0,0-1.2.67L214.47,63,202.8,43.56l-.05-.07-.05-.07-.06-.07-.06-.07-.06-.06-.07,0-.08-.06-.07,0-.09,0-.07,0-.1,0-.07,0-.12,0-.06,0H191.2Zm0,166.12L191.2,131.42h10.41a1.38,1.38,0,0,0,1.19-.67l11.67-19.46,11.68,19.46,0,.06.05.07.06.07.06.07.07.06.07.06.07.05.08.05.08,0,.08,0,.09,0,.08,0,.11,0h10.66Z"/><path class="cls-1" d="M3.84,246.37H0V208.58H3.84Z"/><path class="cls-1" d="M59.45,246.37H55.61V208.58H78.39v3.53H59.45V225H77.06v3.52H59.45Z"/><path class="cls-1" d="M89.12,246.37H85.28V208.58h3.84Z"/><path class="cls-1" d="M144.72,246.37h-3.84V208.58h3.84Z"/><path class="cls-1" d="M167.09,246.37h-3.85V212.11H150.59v-3.53h29.14v3.53H167.09Z"/><path class="cls-1" d="M197.72,246.37h-3.85V230.09l-14.14-21.51h4.8l11.26,17.83,11.26-17.83h4.81l-14.14,21.51Z"/><path class="cls-1" d="M231.07,208.58h11.26c6.24,0,12.17,2.35,12.17,9.5a8.15,8.15,0,0,1-6.67,8.27v.11c5.28.43,8.53,3.95,8.53,9.45,0,2.45-1.6,10.46-13.76,10.46H231.07Zm3.84,16.55h7.74c3.68,0,7.68-1.76,7.68-6.62,0-1.55-.8-6.4-8.05-6.4h-7.37Zm0,17.71h7.37c5.55,0,9.92-2.18,9.92-7.15s-3.31-7.36-9.44-7.36h-7.85Z"/><path class="cls-1" d="M268.53,242.84h17.61v3.53H264.69V208.58h3.84Z"/><path class="cls-1" d="M308.5,247.33c-11.26,0-19.69-8.38-19.69-19.86s8.43-19.85,19.69-19.85,19.69,8.38,19.69,19.85S319.76,247.33,308.5,247.33Zm0-36.19c-9.71,0-15.53,7.64-15.53,16.33s5.82,16.33,15.53,16.33S324,236.17,324,227.47,318.21,211.14,308.5,211.14Z"/><path class="cls-1" d="M367,240.39c-2.51,3.9-7.74,6.94-14,6.94-11.26,0-19.7-8.38-19.7-19.86s8.44-19.85,19.7-19.85a16.43,16.43,0,0,1,13.07,6l-3.36,2.51c-1.49-2.46-5.71-5-9.71-5-9.72,0-15.53,7.64-15.53,16.33S343.29,243.8,353,243.8a12.11,12.11,0,0,0,10.83-5.65Z"/><path class="cls-1" d="M377.29,225h.53l17.77-16.39h5.5l-19,17.13,20.12,20.66H396.5l-18.57-19.48h-.64v19.48h-3.85V208.58h3.85Z"/><path class="cls-1" d="M424.94,214.83a8.26,8.26,0,0,0-7.31-3.69c-3.95,0-8.06,2.09-8.06,6.84,0,10.19,19.37,4.8,19.37,18.41,0,6.88-6.45,10.94-12.43,10.94-4.59,0-9-1.66-11.9-5.61l3.47-2.5a9.54,9.54,0,0,0,8.59,4.58c3.79,0,8.11-2.45,8.11-6.88,0-10.67-19.37-4.75-19.37-18.57,0-7.31,6.08-10.73,12.22-10.73,4.27,0,7.69,1.18,10.67,4.59Z"/><path class="cls-1" d="M41.41,236.33l.11-27.75h3.84v37.79L17.93,218.64v27.73H14.09V208.58Z"/><path class="cls-1" d="M126.69,236.33l.11-27.75h3.84v37.79l-27.43-27.73v27.73H99.36V208.58Z"/></g></g></svg>