<svg xmlns="http://www.w3.org/2000/svg" viewBox="0 0 77.69 103.03"><defs><style>.cls-1{fill:#fff;}</style></defs><g id="Capa_2" data-name="Capa 2"><g id="Capa_1-2" data-name="Capa 1"><path class="cls-1" d="M77.69,51.52s0-.06,0-.09a.17.17,0,0,0,0-.07v-.09l0-.05v0l0-.06h0l0,0L64.88,29.94h0l-2.51-4.18,0,0,0,0h0l0,0,0,0h0l0,0,0,0h0l0,0,0,0h0l0,0h0l0,0H54.52l-15-25a.82.82,0,0,0-1.41,0l-15,25H16a.8.8,0,0,0-.7.4L.12,51.09l0,.06,0,0,0,.12H0s0,0,0,0,0,0,0,.06a0,0,0,0,1,0,0H0v.12a.11.11,0,0,0,0,0,.11.11,0,0,0,0,.05v0s0,0,0,0v0a.08.08,0,0,0,0,.05v0l0,.06v0L12.79,73.06h0l2.54,4.22,0,0,0,0h0l0,0,0,0h0a.08.08,0,0,0,0,0l0,0h0l0,0,0,0h0l0,0h7.5l15,24.94a.82.82,0,0,0,1.41,0l15-24.94h7.14a.81.81,0,0,0,.31-.06.86.86,0,0,0,.39-.34L77.57,51.94l0,0a.05.05,0,0,1,0,0s0-.08,0-.13,0,0,0,0,0-.07,0-.1a.43.43,0,0,1,0-.05v0ZM39.55,63.77h0L32,51.12a.72.72,0,0,0-.11-.15.83.83,0,0,0-.61-.28h0l-13.76,0,13.76-23L45.73,51.92a1.1,1.1,0,0,0,.14.18.77.77,0,0,0,.58.24l13.76,0-13.76,23ZM17.48,76,24.1,65H37.39L30.77,76ZM16,53.15l6.65,11L16,75.27,9.42,64.19ZM24.1,63.37l-6.6-11,13.27,0,6.62,11ZM60.21,27,53.59,38H40.29l6.62-11Zm6.12,15.09-4.67,7.8L55,38.84l6.65-11.07,6.61,11.07ZM53.59,39.67l6.62,11-13.3,0-6.62-11ZM38.84,2.42,52.6,25.35H46.45a.83.83,0,0,0-.71.4l-6.9,11.5-6.9-11.5a.05.05,0,0,0,0,0l0,0,0-.05,0,0,0,0,0,0,0,0,0,0,0,0-.05,0-.05,0h-.05l-.06,0h-6.3Zm0,98.2L25.09,77.69h6.15a.8.8,0,0,0,.7-.4l6.9-11.5,6.9,11.5,0,0,0,.05s0,0,0,0l0,0,0,0,0,0,0,0,0,0,.05,0,0,0,0,0,.05,0H52.6Z"/></g></g></svg>