<svg xmlns="http://www.w3.org/2000/svg" viewBox="0 0 351.7 103.03"><defs><style>.cls-1{fill:#fff;}</style></defs><g id="Capa_2" data-name="Capa 2"><g id="Capa_1-2" data-name="Capa 1"><path class="cls-1" d="M77.69,51.52s0-.06,0-.09a.17.17,0,0,0,0-.07v-.09l0-.05v0l0-.06h0l0,0L64.88,29.94h0l-2.51-4.18,0,0,0,0h0l0,0,0,0h0l0,0,0,0h0l0,0,0,0h0l0,0h0l0,0H54.52l-15-25a.82.82,0,0,0-1.41,0l-15,25H16a.8.8,0,0,0-.7.4L.12,51.09l0,.06,0,0,0,.12H0s0,0,0,0,0,0,0,.06a0,0,0,0,1,0,0H0v.12a.11.11,0,0,0,0,0,.11.11,0,0,0,0,.05v0s0,0,0,0v0a.08.08,0,0,0,0,.05v0l0,.06v0L12.79,73.06h0l2.54,4.22,0,0,0,0h0l0,0,0,0h0a.08.08,0,0,0,0,0l0,0h0l0,0,0,0h0l0,0h7.5l15,24.94a.82.82,0,0,0,1.41,0l15-24.94h7.14a.81.81,0,0,0,.31-.06.86.86,0,0,0,.39-.34L77.57,51.94l0,0a.05.05,0,0,1,0,0s0-.08,0-.13,0,0,0,0,0-.07,0-.1a.43.43,0,0,1,0-.05v0ZM39.55,63.77h0L32,51.12a.72.72,0,0,0-.11-.15.83.83,0,0,0-.61-.28h0l-13.76,0,13.76-23L45.73,51.92a1.1,1.1,0,0,0,.14.18.77.77,0,0,0,.58.24l13.76,0-13.76,23ZM17.48,76,24.1,65H37.39L30.77,76ZM16,53.15l6.65,11L16,75.27,9.42,64.19ZM24.1,63.37l-6.6-11,13.27,0,6.62,11ZM60.21,27,53.59,38H40.29l6.62-11Zm6.12,15.09-4.67,7.8L55,38.84l6.65-11.07,6.61,11.07ZM53.59,39.67l6.62,11-13.3,0-6.62-11ZM38.84,2.42,52.6,25.35H46.45a.83.83,0,0,0-.71.4l-6.9,11.5-6.9-11.5a.05.05,0,0,0,0,0l0,0,0-.05,0,0,0,0,0,0,0,0,0,0,0,0-.05,0-.05,0h-.05l-.06,0h-6.3Zm0,98.2L25.09,77.69h6.15a.8.8,0,0,0,.7-.4l6.9-11.5,6.9,11.5,0,0,0,.05s0,0,0,0l0,0,0,0,0,0,0,0,0,0,.05,0,0,0,0,0,.05,0H52.6Z"/><path class="cls-1" d="M100.42,62.43H98.14V40.1h2.28Z"/><path class="cls-1" d="M133.29,62.43H131V40.1h13.47v2.08H133.29v7.6H143.7v2.08H133.29Z"/><path class="cls-1" d="M150.82,62.43h-2.27V40.1h2.27Z"/><path class="cls-1" d="M183.69,62.43h-2.27V40.1h2.27Z"/><path class="cls-1" d="M196.91,62.43h-2.27V42.18h-7.48V40.1h17.23v2.08h-7.48Z"/><path class="cls-1" d="M215,62.43h-2.27V52.81L204.39,40.1h2.84l6.65,10.53,6.66-10.53h2.84L215,52.81Z"/><path class="cls-1" d="M234.73,40.1h6.66c3.69,0,7.19,1.39,7.19,5.61a4.81,4.81,0,0,1-3.94,4.89v.07a5.17,5.17,0,0,1,5.05,5.58c0,1.45-.95,6.18-8.14,6.18h-6.82ZM237,49.88h4.57c2.18,0,4.54-1,4.54-3.92,0-.91-.47-3.78-4.76-3.78H237Zm0,10.47h4.35c3.28,0,5.87-1.29,5.87-4.23s-2-4.35-5.59-4.35H237Z"/><path class="cls-1" d="M256.88,60.35h10.41v2.08H254.61V40.1h2.27Z"/><path class="cls-1" d="M280.51,63a11.36,11.36,0,0,1-11.64-11.74,11.64,11.64,0,1,1,23.28,0A11.37,11.37,0,0,1,280.51,63Zm0-21.39c-5.75,0-9.18,4.51-9.18,9.65s3.43,9.66,9.18,9.66,9.18-4.51,9.18-9.66S286.25,41.61,280.51,41.61Z"/><path class="cls-1" d="M315.08,58.9a9.84,9.84,0,0,1-8.27,4.1,11.37,11.37,0,0,1-11.64-11.74,11.37,11.37,0,0,1,11.64-11.73,9.71,9.71,0,0,1,7.73,3.53l-2,1.49a7.38,7.38,0,0,0-5.75-2.94c-5.74,0-9.17,4.51-9.17,9.65s3.43,9.66,9.17,9.66a7.16,7.16,0,0,0,6.41-3.35Z"/><path class="cls-1" d="M321.17,49.78h.31L332,40.1h3.25L324,50.22l11.89,12.21h-3.35l-11-11.51h-.38V62.43H318.9V40.1h2.27Z"/><path class="cls-1" d="M349.34,43.79A4.9,4.9,0,0,0,345,41.61c-2.34,0-4.77,1.23-4.77,4,0,6,11.45,2.84,11.45,10.88,0,4.07-3.81,6.47-7.35,6.47a8.4,8.4,0,0,1-7-3.31l2.05-1.49a5.64,5.64,0,0,0,5.08,2.72c2.24,0,4.79-1.45,4.79-4.07,0-6.31-11.45-2.81-11.45-11,0-4.32,3.6-6.34,7.23-6.34a7.68,7.68,0,0,1,6.3,2.71Z"/><path class="cls-1" d="M122.62,56.5l.07-16.4H125V62.43L108.74,46V62.43h-2.27V40.1Z"/><path class="cls-1" d="M173,56.5l.07-16.4h2.27V62.43L159.15,46V62.43h-2.27V40.1Z"/></g></g></svg>