<svg xmlns="http://www.w3.org/2000/svg" viewBox="0 0 35.42 35.42"><defs><style>.cls-1{fill:#fff;}</style></defs><g id="Capa_2" data-name="Capa 2"><g id="Capa_1-2" data-name="Capa 1"><g id="_5zV56T" data-name="5zV56T"><path class="cls-1" d="M0,18.19v-1c.06-.25.11-.49.18-.74A4.42,4.42,0,0,1,4.63,13.3a.72.72,0,0,0,.78-.5c.35-.63.17-1-.3-1.48a4.36,4.36,0,0,1-.64-5.18A4.41,4.41,0,0,1,9.25,4a4.54,4.54,0,0,1,2.5,1.5.38.38,0,0,0,.53.1A4.32,4.32,0,0,1,13,5.33a.41.41,0,0,0,.35-.49,6.57,6.57,0,0,1,.1-1.33,4.41,4.41,0,0,1,8.73.93c0,.74,0,.74.68,1s.63.26,1.14-.23a4.42,4.42,0,1,1,6.23,6.27c-.48.48-.43.47-.24,1.08s.47.73,1.08.73a4.39,4.39,0,0,1,4.4,4.43,4.44,4.44,0,0,1-4.53,4.39c-.65,0-.59,0-.91.59s-.15.88.27,1.3A4.39,4.39,0,0,1,31,29.25a4.44,4.44,0,0,1-7,.93c-.5-.49-.48-.42-1.05-.27s-.78.52-.78,1.16a4.34,4.34,0,0,1-3.38,4.22l-.53.13h-1a.67.67,0,0,0-.12-.06,4.42,4.42,0,0,1-3.82-4.57c0-.56,0-.51-.52-.78a1,1,0,0,0-1.39.26A4.4,4.4,0,0,1,5.18,24c.42-.42.58-.73.26-1.3s-.26-.58-.91-.59A4.31,4.31,0,0,1,.6,19.87,9.3,9.3,0,0,1,0,18.19ZM16.25,5.29h0v.83a1.59,1.59,0,0,1-1.2,1.62c-.85.31-1.69.66-2.51,1a1.56,1.56,0,0,1-2-.28L9.43,7.35A1.47,1.47,0,1,0,7.35,9.42c.38.4.78.78,1.17,1.18a1.56,1.56,0,0,1,.27,1.93,26,26,0,0,0-1,2.51,1.6,1.6,0,0,1-1.61,1.21c-.56,0-1.11,0-1.66,0a1.46,1.46,0,1,0,0,2.92H6.14a1.57,1.57,0,0,1,1.59,1.18c.32.86.67,1.72,1.06,2.55a1.55,1.55,0,0,1-.28,1.93L7.34,26a1.47,1.47,0,1,0,2.07,2.09c.39-.38.76-.77,1.15-1.15a1.56,1.56,0,0,1,2-.28,24,24,0,0,0,2.46,1,1.6,1.6,0,0,1,1.22,1.63c0,.55,0,1.11,0,1.66a1.46,1.46,0,1,0,2.92,0c0-.57,0-1.13,0-1.7a1.57,1.57,0,0,1,1.19-1.58c.85-.31,1.69-.65,2.51-1a1.56,1.56,0,0,1,2,.28c.41.4.8.81,1.2,1.2A1.47,1.47,0,1,0,28.11,26c-.38-.38-.77-.76-1.15-1.15a1.56,1.56,0,0,1-.29-2,22.37,22.37,0,0,0,1-2.42,1.61,1.61,0,0,1,1.65-1.24H31a1.46,1.46,0,1,0,0-2.92c-.55,0-1.11,0-1.66,0A1.6,1.6,0,0,1,27.68,15c-.31-.86-.66-1.7-1-2.52a1.55,1.55,0,0,1,.28-1.93c.38-.39.78-.78,1.17-1.17A1.48,1.48,0,1,0,26,7.33L24.86,8.48a1.56,1.56,0,0,1-2,.28,22,22,0,0,0-2.42-1,1.59,1.59,0,0,1-1.25-1.68c0-.57,0-1.15,0-1.73a1.46,1.46,0,0,0-2.91,0C16.24,4.67,16.25,5,16.25,5.29Z"/><path class="cls-1" d="M17.71,9.59a8.12,8.12,0,1,1-8.12,8.12A8.12,8.12,0,0,1,17.71,9.59Zm5.19,8.1a5.19,5.19,0,1,0-5.16,5.2A5.21,5.21,0,0,0,22.9,17.69Z"/></g></g></g></svg>